HIERARCHY
ROOT Hips
{
  OFFSET 90.7885 88.945 -76.2838
  CHANNELS 6 Xposition Yposition Zposition Zrotation Xrotation Yrotation
  JOINT LeftUpLeg
  {
    OFFSET 8.64259 1.95398 -2.38835
    CHANNELS 3 Zrotation Xrotation Yrotation
    JOINT LeftLeg
    {
      OFFSET 43.7702 0 0
      CHANNELS 3 Zrotation Xrotation Yrotation
      JOINT LeftFoot
      {
        OFFSET 40.6238 0 0
        CHANNELS 3 Zrotation Xrotation Yrotation
        JOINT LeftToeBase
        {
          OFFSET 12.7242 0 0
          CHANNELS 3 Zrotation Xrotation Yrotation
          End Site
          {
            OFFSET 0 0 0
          }
        }
      }
    }
  }
  JOINT RightUpLeg
  {
    OFFSET -8.2249 1.95398 -2.59336
    CHANNELS 3 Zrotation Xrotation Yrotation
    JOINT RightLeg
    {
      OFFSET 43.5653 0 0
      CHANNELS 3 Zrotation Xrotation Yrotation
      JOINT RightFoot
      {
        OFFSET 40.6238 0 0
        CHANNELS 3 Zrotation Xrotation Yrotation
        JOINT RightToeBase
        {
          OFFSET 12.7242 0 0
          CHANNELS 3 Zrotation Xrotation Yrotation
          End Site
          {
            OFFSET 0 0 0
          }
        }
      }
    }
  }
  JOINT Spine
  {
    OFFSET 0.165834 0.87714 6.61349
    CHANNELS 3 Zrotation Xrotation Yrotation
    JOINT Spine1
    {
      OFFSET 7.38963 1.71661e-005 0
      CHANNELS 3 Zrotation Xrotation Yrotation
      JOINT Spine2
      {
        OFFSET 11.9445 1.14441e-005 0
        CHANNELS 3 Zrotation Xrotation Yrotation
        JOINT Spine3
        {
          OFFSET 14.7254 4.19617e-005 0
          CHANNELS 3 Zrotation Xrotation Yrotation
          JOINT Spine4
          {
            OFFSET 10.9679 0 0
            CHANNELS 3 Zrotation Xrotation Yrotation
            JOINT RightShoulder
            {
              OFFSET 2.46616 -1.6653 3.69651
              CHANNELS 3 Zrotation Xrotation Yrotation
              JOINT RightArm
              {
                OFFSET 13.0012 0 0
                CHANNELS 3 Zrotation Xrotation Yrotation
                JOINT RightForeArm
                {
                  OFFSET 28.7848 1.52588e-005 0
                  CHANNELS 3 Zrotation Xrotation Yrotation
                  JOINT RightHand
                  {
                    OFFSET 26.5688 1.52588e-005 0
                    CHANNELS 3 Zrotation Xrotation Yrotation
                    End Site
                    {
                      OFFSET 0 0 0
                    }
                  }
                }
              }
            }
            JOINT LeftShoulder
            {
              OFFSET 2.38034 -1.29275 -3.7523
              CHANNELS 3 Zrotation Xrotation Yrotation
              JOINT LeftArm
              {
                OFFSET 16.3182 6.10352e-005 0
                CHANNELS 3 Zrotation Xrotation Yrotation
                JOINT LeftForeArm
                {
                  OFFSET 27.0901 0 0
                  CHANNELS 3 Zrotation Xrotation Yrotation
                  JOINT LeftHand
                  {
                    OFFSET 24.5451 1.52588e-005 0
                    CHANNELS 3 Zrotation Xrotation Yrotation
                    End Site
                    {
                      OFFSET 0 0 0
                    }
                  }
                }
              }
            }
            JOINT Neck
            {
              OFFSET 5.0226 -0.0266342 0
              CHANNELS 3 Zrotation Xrotation Yrotation
              JOINT Head
              {
                OFFSET 6.69363 2.86102e-005 0
                CHANNELS 3 Zrotation Xrotation Yrotation
                End Site
                {
                  OFFSET 0 0 0
                }
              }
            }
          }
        }
      }
    }
  }
}
MOTION
Frames:	6
Frame Time:	0.0416667
67.6789 83.6841 34.2751 92.2636 -34.55 103.167 -163.405 43.4092 79.6525 -84.7847 13.6377 -0.203878 78.0043 8.6125 4.87227 25.8212 9.74439 -12.8407 163.347 -4.30885 80.3592 -44.5919 -10.2402 1.55986 81.5241 -10.2931 -0.785679 47.2468 -1.04103 -2.95423 2.88884 8.00616 -90.7598 10.9168 5.40035 -2.0212 -0.744893 5.30616 -2.25746 -23.3696 5.75736 -0.299694 -3.35695 5.75736 -0.299699 92.6252 -16.9035 -106.551 26.1702 -0.699297 -26.2772 -40.0363 2.54237 -102.911 -28.2076 1.07563 -19.2292 -83.9477 -48.3734 87.6436 -33.4697 14.8532 51.3608 25.3604 -19.9491 -103.815 -0.333605 -0.361779 -19.5251 28.2184 1.36511 2.8928 -13.6652 0.0591089 1.23402 
72.5089 85.6038 38.5485 90.9236 -31.6296 102.97 -163.396 42.4876 79.8392 -74.2962 13.0213 -3.50914 79.3313 9.0683 4.33294 22.3093 10.7818 -12.7716 163.454 -10.6883 81.6389 -36.9942 -10.1692 2.55295 69.8195 -4.48766 -0.588873 53.6989 -2.24368 -0.534475 3.11618 7.91051 -90.7577 11.1157 5.85125 -2.07539 -0.544116 5.75424 -2.33159 -23.1849 6.2035 -0.214463 -3.17223 6.20351 -0.214469 93.2677 -14.5609 -106.059 29.2168 -2.5867 -27.9429 -38.4438 2.49381 -104.571 -29.6736 0.879379 -16.8928 -84.7326 -45.6883 86.079 -37.2976 14.3679 55.4304 24.8987 -20.8996 -104.374 0.353663 -0.42689 -18.4349 31.8895 -0.505284 2.61971 -17.0951 -1.72379 1.02532 
77.8641 87.4752 42.8486 89.374 -28.5263 102.635 -163.885 40.2104 80.2435 -63.3516 11.9948 -6.82917 77.0697 7.84867 4.24463 22.4717 8.9421 -10.5119 165.083 -15.8909 83.658 -31.297 -10.1875 2.53627 60.6671 0.188999 0.916432 48.7885 -2.65551 3.22422 3.11883 7.77667 -90.6328 11.3806 5.91102 -1.85483 -0.27855 5.82364 -2.11395 -22.922 6.1942 0.0140711 -2.9094 6.1942 0.0140674 93.1423 -14.5826 -106.38 29.765 -8.24286 -28.4702 -44.17 5.17706 -103.791 -30.1965 0.481105 -16.2924 -85.0966 -42.044 84.943 -41.094 12.7859 57.6723 23.95 -21.4358 -105.631 1.82598 -0.602473 -18.0493 35.2452 -2.22375 0.379136 -19.9205 -2.48161 1.14245 
82.8773 88.6241 46.8337 86.524 -25.8701 101.877 -165.026 39.3421 80.4772 -53.8143 10.9996 -9.06665 74.5444 6.54478 4.23525 20.9158 10.6888 -12.1234 168.019 -17.2277 86.9998 -30.8927 -12.7853 1.35594 60.5123 0.410356 0.617644 26.9489 -1.38096 3.57887 3.02013 7.54557 -90.4277 11.8334 5.80507 -1.47154 0.174322 5.73469 -1.72637 -22.4654 5.97801 0.347408 -2.45279 5.97801 0.347409 92.8933 -15.3196 -106.654 29.5945 -14.7765 -28.5272 -47.3525 8.20279 -102.123 -29.8499 0.35401 -16.3044 -85.8435 -39.8579 83.3283 -43.3535 11.7926 58.59 22.9622 -21.7782 -106.951 4.27196 -0.921295 -18.6148 37.447 -3.56515 -2.07314 -20.4831 -2.49337 0.584084 
87.5995 88.8199 50.2871 84.4251 -24.3235 101.941 -166.309 38.4259 81.4505 -46.4836 11.2196 -10.194 71.2024 4.87031 4.0515 17.5435 10.3511 -10.4902 170.241 -16.1787 89.4874 -35.5227 -16.0412 0.256498 63.2214 -1.1881 -0.346117 20.0487 -1.48489 4.64101 2.90541 7.39112 -90.3874 12.1388 5.59229 -1.39133 0.478873 5.5256 -1.63679 -22.1533 5.75107 0.359303 -2.14069 5.75104 0.359309 93.0577 -15.6606 -106.063 28.1569 -23.621 -29.0787 -49.7165 8.70917 -97.6508 -29.1822 0.407007 -16.8724 -87.1154 -41.2708 81.4581 -42.6616 9.29751 57.4236 23.7601 -21.5833 -108.314 6.41081 -1.13927 -17.9622 38.4315 -3.70748 -2.78567 -19.543 -2.19906 0.206751 
92.1488 88.5598 53.4248 84.3577 -23.5031 103.079 -168.265 35.3556 83.2811 -41.114 11.2481 -9.70461 69.4327 4.02115 3.46707 15.6591 10.362 -9.8206 170.511 -14.4855 89.8098 -44.4282 -17.1493 0.0787735 65.4853 -2.57225 -1.75989 23.1328 -2.91821 7.26567 2.73681 7.3787 -90.4585 12.1625 5.22323 -1.49491 0.500957 5.15238 -1.72388 -22.1189 5.43039 0.14859 -2.10622 5.43037 0.148578 92.2083 -17.8107 -107.14 27.9639 -30.475 -26.0455 -49.5037 6.01126 -93.7609 -30.1398 0.550166 -16.868 -86.9979 -43.9605 82.1729 -41.3081 9.63835 53.6618 25.4296 -21.1971 -107.19 7.97598 -1.23365 -16.9321 39.3407 -3.33782 -3.88528 -19.8849 -1.43172 1.15708 
